<svg width="124" height="124" viewBox="0 0 124 124" fill="none" xmlns="http://www.w3.org/2000/svg">
<rect width="124" height="124" fill="url(#paint0_radial)"/>
<g clip-path="url(#clip0)">
<path d="M124 0H0V124H124V0Z" fill="url(#paint1_radial)"/>
<path d="M28.6042 77.3301L32.2044 50.1056L0.796875 28.3329L29.4957 38.0363L36.2847 27.6472L61.0404 12.2863L115.592 42.3223L118.404 88.1993L94.1281 121.973L74.927 124.921L84.8704 106.749V89.2279L77.6357 75.5471L70.2981 70.6782L59.0174 82.3018V94.6111L50.1712 102.874L38.9934 104.246L34.0217 107.058L25.8955 104.452L22.501 92.2452L28.6042 83.6733V77.3301Z" fill="white"/>
<path d="M78.765 28.0928C72.7647 26.8584 66.2157 27.2013 66.2157 27.2013C66.2157 27.2013 64.0556 37.1448 50.752 39.7506C50.8548 39.7163 68.3759 45.7167 78.765 28.0928Z" fill="#94A6C4"/>
<path d="M84.1835 118.235C91.4182 112.578 96.8357 104.794 99.3387 95.9824C99.4415 95.6396 100.47 95.0909 101.156 94.6109C102.287 93.9252 103.419 93.3766 103.625 92.4508C104.07 89.8449 104.31 87.1362 104.31 84.4275C104.31 83.3988 103.282 82.4045 102.287 81.3759C101.499 80.6901 100.71 79.9015 100.71 79.3529C99.5787 69.0666 94.847 59.466 87.2694 52.4713L86.4808 53.2599C93.8184 60.1518 98.5844 69.5123 99.5787 79.4557C99.6816 80.3472 100.607 81.273 101.499 82.1645C102.287 82.8502 103.179 83.8446 103.179 84.3246C103.179 86.9305 102.939 89.5363 102.493 92.1079C102.39 92.5537 101.362 92.9994 100.573 93.4794C99.4415 94.028 98.4129 94.6109 98.2072 95.5024C95.4985 105.103 89.2924 113.469 81.029 118.887C82.5034 115.732 87.1322 105.446 89.601 100.234L89.1552 83.5017L74.823 69.6152L66.6968 70.7467L57.782 85.2161C57.782 85.2161 61.9651 90.5307 56.1019 96.7368C50.3415 102.84 45.8155 104.177 45.8155 104.177L41.6324 101.914C42.8668 100.337 45.3698 97.9711 47.2899 96.3939C50.5815 93.6851 53.8389 93.4451 53.8389 90.5307C53.9417 84.4275 47.3928 86.1419 47.3928 86.1419L45.0269 88.4048L43.9983 96.771L39.0266 102.977L38.478 102.874L30.2832 101.057C30.2832 101.057 35.2549 98.4511 36.0435 95.5367C36.8322 92.7251 34.4663 83.3303 34.3634 82.7817C34.4663 82.8845 36.7293 84.8046 37.7579 87.9934C39.5752 83.0217 41.941 78.29 42.6268 77.8099C43.3125 77.3642 52.4674 72.4953 52.4674 72.4953L49.4158 80.5187L51.6787 79.2843L57.0962 65.9464C57.0962 65.9464 62.4108 63.3405 66.3539 63.3405C73.4857 63.2377 83.9778 54.5286 79.2461 38.9277C80.6176 39.4763 104.105 51.237 108.151 74.2783C111.202 92.0393 101.122 108.635 84.1835 118.235Z" fill="#94A6C4"/>
<path d="M57.3 30.5615C59.9058 27.5099 58.8772 22.9839 58.8772 22.9839L51.2996 34.196C51.1967 34.196 54.0083 34.2988 57.3 30.5615Z" fill="url(#paint2_linear)"/>
<path d="M31.8938 91.6965L32.7853 87.1705C32.7853 87.1705 29.0479 93.7195 28.7051 94.611C28.3622 95.6396 28.9451 97.4226 30.3851 97.3197C31.8595 97.2168 33.6768 95.0567 33.6768 93.4795C33.6768 91.4565 31.8938 91.6965 31.8938 91.6965Z" fill="url(#paint3_linear)"/>
<path d="M98.997 19.8295C98.997 19.8295 104.654 20.0695 110.518 20.721C97.3169 10.3318 84.7676 7.28018 74.5841 7.28018C60.5604 7.28018 51.097 13.0405 50.5141 13.3834L54.903 6.3887C54.903 6.3887 37.2791 4.7086 31.073 23.3268C29.4958 19.3837 28.0214 13.6234 28.0214 13.6234C28.0214 13.6234 18.8666 21.6467 23.1525 34.9847C12.6605 31.1444 -2.39184 25.8298 -2.94044 25.727C-3.72906 25.6241 -3.96907 25.967 -3.96907 25.967C-3.96907 25.967 -4.20909 26.3099 -3.52333 26.8585C-2.28897 27.8871 21.4381 45.3738 26.6499 48.7683C25.5184 52.8486 25.5184 54.7687 26.6499 56.6888C28.2271 59.2947 28.33 60.6319 28.1242 62.552C27.8842 64.4721 25.8613 81.0674 25.4155 83.1246C24.9698 85.1476 20.2038 92.3823 20.4438 94.5424C20.6838 96.7026 23.5983 105.823 26.2041 106.852C28.1242 107.537 32.8559 109.012 36.0447 109.012C37.1762 109.012 38.2048 108.772 38.6506 108.326C40.5707 106.646 41.1193 106.303 42.4908 106.303C42.5937 106.303 42.7308 106.303 42.8337 106.303C43.3823 106.303 44.068 106.406 44.8567 106.406C46.6739 106.406 49.0398 106.063 50.7199 104.486C53.1886 102.017 57.5088 98.6227 58.846 97.0454C60.5261 94.8853 61.4519 91.9709 61.0062 89.0221C60.6633 86.3134 62.1377 83.9475 63.8178 81.5817C65.9779 78.7701 69.921 73.6612 69.921 73.6612C77.7043 79.5244 82.5732 88.4735 82.5732 98.4169C82.5732 116.041 55.6916 133.322 61.6576 133.322C74.4127 133.322 81.2016 128.693 81.2016 128.693C81.2016 128.693 78.8358 131.745 74.9956 135.242C75.0984 135.242 75.0984 135.242 75.0984 135.242C96.2197 132.293 106.506 114.909 106.506 114.909C106.506 114.909 105.717 120.567 104.689 124.407C132.805 103.286 128.073 76.85 127.97 75.9585C128.21 76.3014 131.022 79.6959 132.496 81.4788C137.056 34.8818 98.997 19.8295 98.997 19.8295ZM55.7259 94.1653C55.2801 94.7139 53.36 96.4283 51.9885 97.6626C50.617 98.897 49.1769 100.131 48.0454 101.263C47.5997 101.709 46.6739 101.949 45.3367 101.949C44.8909 101.949 44.4452 101.949 44.1023 101.949C43.8623 101.949 43.6566 101.949 43.4166 101.949C43.1766 101.949 43.0737 101.949 42.9708 101.949C42.628 101.949 42.2851 101.949 41.9422 101.949C43.6223 99.6856 48.594 94.5082 50.3084 93.3767C52.3314 92.0051 53.36 90.6679 52.1257 88.3021C50.8913 85.9362 47.5997 86.4848 47.5997 86.4848C47.5997 86.4848 49.5198 85.6962 51.1999 85.6962C49.0398 85.1476 46.331 85.6962 45.0967 86.9306C43.7252 88.1649 43.9652 92.588 43.4166 95.3996C42.868 98.3484 40.9479 99.7885 37.9991 102.531C36.4219 104.006 35.2904 104.452 34.3989 104.452C32.4788 104.109 30.2158 103.56 28.6386 102.977C27.5071 101.503 25.827 96.634 25.3469 94.611C25.6898 93.4795 27.027 91.1137 27.7128 89.7422C29.0843 87.1363 29.8729 85.6619 30.0786 84.3247C30.5244 82.4046 31.9988 70.541 32.5474 65.5693C34.0217 67.4894 36.0447 70.6439 35.599 72.7012C38.8906 68.0723 36.4904 63.5463 35.359 61.7291C34.3303 59.9118 32.9931 56.3116 34.1246 52.4714C35.2561 48.6312 39.3363 38.002 39.3363 38.002C39.3363 38.002 40.7078 40.3678 42.628 39.9221C44.5481 39.4763 60.0118 16.195 60.0118 16.195C60.0118 16.195 64.1949 25.3498 59.7718 32.0016C55.2458 38.6534 50.857 39.9221 50.857 39.9221C50.857 39.9221 57.0631 41.0536 62.8234 36.8705C65.1893 42.3908 67.4523 48.1511 67.5551 48.9741C67.2123 49.7627 62.6863 60.5976 62.2405 61.2833C62.0005 61.5234 60.4233 61.9691 59.2918 62.1748C57.3717 62.7234 56.2402 63.0663 55.7944 63.4092C55.0058 64.0949 51.4056 74.0384 49.6912 78.8729C47.6682 79.4216 45.611 80.553 44.1709 82.816C44.9595 82.2674 47.4625 81.9246 49.2455 81.6845C50.8227 81.5817 55.6916 84.1533 56.9259 89.0221C56.9259 89.125 56.9259 89.125 56.9259 89.2621C57.2002 91.1137 56.6173 92.828 55.7259 94.1653ZM45.0967 95.5368C46.1253 94.0624 45.9881 91.5937 46.1253 90.8051C46.2282 90.0165 46.4682 88.5421 47.3597 88.3364C48.2511 88.0963 50.4113 88.4392 50.4113 90.0165C50.4113 91.4908 48.834 91.8337 47.7025 92.8281C46.9139 93.6167 45.3367 95.2968 45.0967 95.5368ZM90.185 73.9698C91.3165 68.2095 91.4194 63.2377 91.0765 59.1575C95.4653 65.0207 98.2083 72.1526 98.997 79.4901C99.0998 80.3816 100.026 81.3074 100.917 82.1989C101.706 82.8846 102.597 83.7761 102.597 84.359C102.597 86.9648 102.357 89.5707 101.911 92.1423C101.809 92.4852 100.78 93.0338 99.9913 93.5138C98.8598 94.0624 97.8312 94.6453 97.6255 95.5368C95.1567 104.246 89.8421 111.926 82.7103 117.344C93.2366 106.372 98.3112 88.3021 90.185 73.9698ZM83.0532 118.372C90.3908 112.715 96.0482 104.829 98.5169 95.8797C98.6198 95.5368 99.6484 94.9882 100.334 94.5081C101.466 93.9595 102.597 93.2738 102.803 92.348C103.249 89.7422 103.489 87.0334 103.489 84.3247C103.489 83.2961 102.46 82.3017 101.466 81.2731C100.917 80.5873 99.9913 79.7987 99.9913 79.2501C99.0998 70.9868 95.8082 63.2035 90.7336 56.7574C88.4706 43.2137 79.453 39.0306 79.213 38.8935C79.453 39.2363 85.3162 47.7054 81.2359 57.6488C77.0528 67.6951 66.3208 66.1179 65.4293 66.2208C64.5378 66.2208 61.0405 70.7468 56.6173 79.113C56.0687 78.8729 53.6686 78.3243 50.9599 78.7701C52.9828 73.1126 56.0345 65.0893 56.6173 64.4378C56.8574 64.1978 58.5375 63.7521 59.669 63.4092C61.8291 62.8606 62.8234 62.5177 63.1663 62.0377C63.4063 61.6948 64.5378 59.0889 65.635 56.3802C66.6637 56.3802 69.2352 56.1402 69.4752 56.0373C69.7153 55.7973 71.8411 50.277 71.8411 49.5912C71.8411 49.0426 67.4523 38.0706 65.7379 33.8875C66.5265 32.996 67.3151 31.8645 68.1037 30.5958C91.2479 33.0645 109.352 52.7457 109.352 76.5757C109.386 94.9539 98.6541 110.898 83.0532 118.372Z" fill="url(#paint4_linear)"/>
<path d="M53.0148 57.3403C55.1749 54.8716 54.0434 50.2084 50.0661 49.4198C51.0947 47.054 52.5348 42.288 52.5348 42.288C52.5348 42.288 41.0141 60.3576 39.9855 60.7005C38.9568 61.0433 37.9625 57.1003 37.9625 57.1003C35.8024 65.3636 41.5627 66.4608 42.2485 63.8892C45.4372 63.1006 50.8547 59.7404 53.0148 57.3403Z" fill="url(#paint5_linear)"/>
<path d="M43.1738 61.7633L49.037 51.717C49.037 51.717 52.4315 53.3971 50.7171 56.1059C48.5913 59.2603 43.1738 61.7633 43.1738 61.7633Z" fill="url(#paint6_radial)"/>
<path d="M115.832 108.292C114.152 110.555 112.232 112.921 109.969 115.184C124.541 87.1706 110.655 61.5234 110.072 60.4948C111.1 61.5234 112.095 62.6549 113.02 63.6492C124.164 76.0957 125.535 94.7482 115.832 108.292Z" fill="#D82423"/>
<path d="M129.375 72.2554C124.3 58.5746 117.065 46.9511 101.122 36.4591C85.7606 26.2756 69.2682 27.0985 68.3767 27.2014C68.2739 27.2014 68.1367 27.2014 68.1367 27.2014C68.6853 26.9614 69.2682 26.8585 69.8168 26.7556C73.3142 25.6241 77.8401 24.7327 82.3661 24.1498C94.3325 22.4697 106.436 26.5156 114.665 35.2247C114.768 35.3276 114.768 35.3276 114.905 35.4647C124.3 45.3739 129.135 57.8203 129.375 72.2554Z" fill="#D82423"/>
<path d="M97.5199 16.3321C80.6847 13.1776 69.8497 14.7549 62.0321 17.7036C61.7921 16.8121 61.0035 14.9949 60.352 13.5205C57.9862 16.3321 55.4832 19.7266 53.9059 21.8867C49.62 24.8355 47.8027 27.6471 47.8027 27.6471C50.2715 19.178 57.5062 12.8348 66.3181 11.2575C68.7868 10.8118 71.5298 10.5718 74.4443 10.5718C82.2619 10.7089 90.0452 12.629 97.5199 16.3321Z" fill="#D82423"/>
<path d="M35.2561 38.0364C22.0553 37.5906 26.4442 22.2297 26.6842 21.304C26.6842 21.4411 27.5757 33.4075 35.2561 38.0364Z" fill="#D82423"/>
<path d="M48.2476 10.3661C38.0641 16.4694 40.1214 31.0417 40.1214 31.0417C30.418 16.2294 47.459 10.709 48.2476 10.3661Z" fill="#D82423"/>
<path d="M31.5503 42.1165C32.2361 42.6651 32.9218 43.6937 32.0989 45.1681C31.6532 45.9567 30.9674 45.8538 29.9388 45.4081C28.5673 44.7223 20.4411 39.9906 13.1035 35.1218C21.4697 38.0705 29.9388 41.225 31.276 41.9108C31.3103 41.8765 31.4132 41.9793 31.5503 42.1165Z" fill="white"/>
<path d="M124 124.5H124.5V124V94C124.5 82.6782 115.322 73.5 104 73.5H94C82.6782 73.5 73.5 82.6782 73.5 94V104C73.5 115.322 82.6782 124.5 94 124.5H124Z" fill="url(#paint7_linear)" stroke="url(#paint8_linear)"/>
<path d="M102.05 92.0786L107.939 87.435L108.069 96.5879L102.05 92.0786Z" fill="white"/>
<path d="M107.832 89.8441C110.311 89.8943 112.661 90.8701 114.452 92.5815C118.351 96.3078 118.437 102.438 114.645 106.269C110.853 110.1 104.614 110.185 100.715 106.459C98.7801 104.609 97.7784 102.271 97.7393 99.5003L101.186 99.4533C101.213 101.357 101.832 102.832 103.131 104.046C105.673 106.475 109.718 106.42 112.19 103.923C114.662 101.425 114.606 97.4507 112.064 95.0217C110.909 93.9176 109.362 93.2947 107.765 93.2325L107.832 89.8441Z" fill="white"/>
<path d="M96.8449 106.791L90.9556 111.435L90.8268 102.31L96.8449 106.791Z" fill="white"/>
<path d="M91.1899 89.6789C93.7252 89.6444 96.2454 90.5619 98.1805 92.4113C100.116 94.2606 101.117 96.5987 101.156 99.3697L97.7095 99.4167C97.6827 97.5133 97.0635 96.038 95.7642 94.8239C93.2227 92.3948 89.1776 92.45 86.7056 94.9473C84.2336 97.4446 84.2897 101.419 86.8312 103.848C87.9865 104.952 89.5338 105.575 91.1302 105.637L91.0356 109.026C88.5561 108.976 86.206 108 84.4154 106.289C80.5164 102.563 80.4299 96.4326 84.2222 92.6015C86.1613 90.6993 88.6831 89.7131 91.1899 89.6789Z" fill="white"/>
</g>
<defs>
<radialGradient id="paint0_radial" cx="0" cy="0" r="1" gradientUnits="userSpaceOnUse" gradientTransform="translate(62 62) rotate(46.2492) scale(62.8401 61.1197)">
<stop stop-color="#AEF8B6"/>
<stop offset="0.614583" stop-color="#4A8485"/>
<stop offset="0.880208" stop-color="#14476B"/>
</radialGradient>
<radialGradient id="paint1_radial" cx="0" cy="0" r="1" gradientUnits="userSpaceOnUse" gradientTransform="translate(25.406 24.8688) scale(134.906)">
<stop stop-color="#00A8E2"/>
<stop offset="0.671875" stop-color="#49136A"/>
<stop offset="0.973958" stop-color="#1975B9"/>
</radialGradient>
<linearGradient id="paint2_linear" x1="-7.42859" y1="76.8352" x2="79.1351" y2="10.9597" gradientUnits="userSpaceOnUse">
<stop stop-color="#2374AD"/>
<stop offset="1" stop-color="#1D3250"/>
</linearGradient>
<linearGradient id="paint3_linear" x1="14.426" y1="105.552" x2="100.99" y2="39.6767" gradientUnits="userSpaceOnUse">
<stop stop-color="#2374AD"/>
<stop offset="1" stop-color="#1D3250"/>
</linearGradient>
<linearGradient id="paint4_linear" x1="12.9659" y1="103.631" x2="99.5296" y2="37.755" gradientUnits="userSpaceOnUse">
<stop stop-color="#2374AD"/>
<stop offset="1" stop-color="#1D3250"/>
</linearGradient>
<linearGradient id="paint5_linear" x1="1.71146" y1="88.8447" x2="88.2751" y2="22.9692" gradientUnits="userSpaceOnUse">
<stop stop-color="#2374AD"/>
<stop offset="1" stop-color="#1D3250"/>
</linearGradient>
<radialGradient id="paint6_radial" cx="0" cy="0" r="1" gradientUnits="userSpaceOnUse" gradientTransform="translate(48.9068 54.4564) scale(8.67829)">
<stop stop-color="white"/>
<stop offset="1" stop-color="#FFD925"/>
</radialGradient>
<linearGradient id="paint7_linear" x1="79.5" y1="78.5" x2="117.5" y2="120.5" gradientUnits="userSpaceOnUse">
<stop stop-color="#5EC6EA"/>
<stop offset="1" stop-color="#69179B"/>
</linearGradient>
<linearGradient id="paint8_linear" x1="78.5" y1="80" x2="99" y2="124" gradientUnits="userSpaceOnUse">
<stop stop-color="white"/>
<stop offset="1" stop-color="white" stop-opacity="0"/>
</linearGradient>
<clipPath id="clip0">
<rect width="124" height="124" fill="white"/>
</clipPath>
</defs>
</svg>
