<svg width="124" height="124" viewBox="0 0 124 124" fill="none" xmlns="http://www.w3.org/2000/svg">
<g clip-path="url(#clip0942)">
<path d="M0 20C0 8.95431 8.9543 0 20 0H104C115.046 0 124 8.9543 124 20V104C124 115.046 115.046 124 104 124H20C8.95431 124 0 115.046 0 104V20Z" fill="url(#paint0942)"/>
<path d="M0 20C0 8.95431 8.9543 0 20 0H104C115.046 0 124 8.9543 124 20V104C124 115.046 115.046 124 104 124H20C8.95431 124 0 115.046 0 104V20Z" fill="url(#paint1942)"/>
<path d="M0 20C0 8.95431 8.9543 0 20 0H104C115.046 0 124 8.9543 124 20V104C124 115.046 115.046 124 104 124H20C8.95431 124 0 115.046 0 104V20Z" fill="url(#paint2942)"/>
<path d="M0 20C0 8.95431 8.9543 0 20 0H104C115.046 0 124 8.9543 124 20V104C124 115.046 115.046 124 104 124H20C8.95431 124 0 115.046 0 104V20Z" fill="#0D2751"/>
<g clip-path="url(#clip1942)">
<path d="M66.6508 40V21C61.2596 20.9154 55.9054 21.9043 50.9001 23.9089C45.8947 25.9135 41.3381 28.894 37.4957 32.6766C33.6533 36.4592 30.6018 40.9685 28.5189 45.9418C26.436 50.9151 25.3633 56.2531 25.3633 61.645C25.3633 67.0369 26.436 72.3749 28.5189 77.3482C30.6018 82.3215 33.6533 86.8308 37.4957 90.6134C41.3381 94.396 45.8947 97.3764 50.9001 99.3811C55.9054 101.386 61.2596 102.375 66.6508 102.29V83.29C63.764 83.352 60.8937 82.8369 58.2085 81.775C55.5233 80.7131 53.0772 79.1257 51.0135 77.1059C48.9499 75.0861 47.3104 72.6746 46.191 70.0129C45.0717 67.3511 44.4951 64.4926 44.4951 61.605C44.4951 58.7174 45.0717 55.8589 46.191 53.1971C47.3104 50.5353 48.9499 48.1239 51.0135 46.1041C53.0772 44.0843 55.5233 42.4969 58.2085 41.435C60.8937 40.3731 63.764 39.858 66.6508 39.92" fill="white"/>
<path d="M88.4208 40C86.2248 40.0025 84.0959 39.2434 82.397 37.852C80.698 36.4606 79.5342 34.523 79.1039 32.3696C78.6736 30.2162 79.0034 27.9801 80.0372 26.0427C81.0709 24.1052 82.7446 22.5862 84.7729 21.7446C86.8013 20.903 89.0587 20.7909 91.1604 21.4273C93.2622 22.0638 95.0782 23.4095 96.2988 25.235C97.5195 27.0605 98.0692 29.2528 97.8544 31.4383C97.6396 33.6238 96.6735 35.6671 95.1208 37.22C94.2435 38.1036 93.1996 38.8043 92.0495 39.2815C90.8994 39.7588 89.666 40.003 88.4208 40Z" fill="#00D8D5"/>
<path d="M88.2595 102.29C86.0686 102.288 83.9462 101.527 82.2537 100.136C80.5612 98.7448 79.4034 96.8098 78.9775 94.6608C78.5517 92.5117 78.8841 90.2815 79.9182 88.3501C80.9523 86.4186 82.6241 84.9055 84.6487 84.0685C86.6733 83.2314 88.9256 83.1222 91.0216 83.7595C93.1177 84.3968 94.9281 85.7412 96.1441 87.5636C97.3602 89.3859 97.9068 91.5735 97.6907 93.7537C97.4747 95.9339 96.5095 97.9717 94.9595 99.52C93.1789 101.291 90.7707 102.286 88.2595 102.29Z" fill="#FF4C8B"/>
<path d="M88.3404 61.64C88.3417 64.4887 87.7816 67.3098 86.692 69.942C85.6025 72.5741 84.0048 74.9657 81.9905 76.9801C79.9761 78.9944 77.5845 80.5921 74.9523 81.6816C72.3202 82.7712 69.4991 83.3313 66.6504 83.33V40C69.4991 39.9987 72.3202 40.5588 74.9523 41.6484C77.5845 42.7379 79.9761 44.3356 81.9905 46.3499C84.0048 48.3643 85.6025 50.7559 86.692 53.388C87.7816 56.0202 88.3417 58.8413 88.3404 61.69" fill="white"/>
</g>
<g style="mix-blend-mode:screen">
<path d="M93.5 248C187.112 248 263 173.679 263 82C263 -9.67928 187.112 -84 93.5 -84C-0.112274 -84 -76 -9.67928 -76 82C-76 173.679 -0.112274 248 93.5 248Z" fill="url(#paint3942)"/>
</g>
</g>
<defs>
<linearGradient id="paint0942" x1="104.623" y1="6.23747" x2="-0.191589" y2="147.439" gradientUnits="userSpaceOnUse">
<stop stop-color="#2081E2"/>
<stop offset="1" stop-color="#89B7E6"/>
</linearGradient>
<linearGradient id="paint1942" x1="90.0377" y1="61.5319" x2="3.84007" y2="76.1027" gradientUnits="userSpaceOnUse">
<stop stop-color="#2525C6"/>
<stop offset="1" stop-color="#4D91EE"/>
</linearGradient>
<linearGradient id="paint2942" x1="118.123" y1="16.261" x2="13.3063" y2="157.468" gradientUnits="userSpaceOnUse">
<stop stop-color="#3395F7"/>
<stop offset="1" stop-color="#8EC6FF"/>
</linearGradient>
<radialGradient id="paint3942" cx="0" cy="0" r="1" gradientUnits="userSpaceOnUse" gradientTransform="translate(89.9714 68.2959) scale(178 177.762)">
<stop stop-color="#2A5EAA"/>
<stop offset="0.22" stop-color="#265192" stop-opacity="0.74"/>
<stop offset="0.59" stop-color="#213E6E" stop-opacity="0.34"/>
<stop offset="0.86" stop-color="#1D3258" stop-opacity="0.1"/>
<stop offset="1" stop-color="#1C2D4F" stop-opacity="0"/>
</radialGradient>
<clipPath id="clip0942">
<path d="M0 20C0 8.95431 8.9543 0 20 0H104C115.046 0 124 8.9543 124 20V104C124 115.046 115.046 124 104 124H20C8.95431 124 0 115.046 0 104V20Z" fill="white"/>
</clipPath>
<clipPath id="clip1942">
<rect width="71.9" height="81.3" fill="white" transform="translate(26 21)"/>
</clipPath>
</defs>
</svg>
