<svg version="1.2" xmlns="http://www.w3.org/2000/svg" viewBox="0 0 124 124" width="124" height="124">
	<title>FIATONRAMP-svg</title>
	<defs>
		<radialGradient id="g1" cx="62" cy="62" r="62.8" gradientUnits="userSpaceOnUse">
			<stop offset="0" stop-color="#aef8b6"/>
			<stop offset=".6" stop-color="#4a8485"/>
			<stop offset=".9" stop-color="#14476b"/>
		</radialGradient>
		<linearGradient id="g2" x1="62" y1="124" x2="7.3" y2="56.1" gradientUnits="userSpaceOnUse">
			<stop offset="0" stop-color="#7ebaff"/>
			<stop offset="1" stop-color="#1557d9"/>
		</linearGradient>
		<linearGradient id="g3" x1="62" y1="62" x2="-9.7" y2="109.4" gradientUnits="userSpaceOnUse">
			<stop offset="0" stop-color="#4f39d6"/>
			<stop offset="1" stop-color="#250897"/>
		</linearGradient>
		<linearGradient id="g4" x1="62" y1="62" x2="111.5" y2="132.8" gradientUnits="userSpaceOnUse">
			<stop offset="0" stop-color="#537cd7"/>
			<stop offset="1" stop-color="#537cd7"/>
		</linearGradient>
		<linearGradient id="g5" x1="62" y1="62" x2="133.7" y2="14.6" gradientUnits="userSpaceOnUse">
			<stop offset="0" stop-color="#3796d7"/>
			<stop offset="1" stop-color="#2937b5"/>
		</linearGradient>
		<linearGradient id="g6" x1="39.4" y1="65.8" x2="26.8" y2="12.4" gradientUnits="userSpaceOnUse">
			<stop offset="0" stop-color="#5392d7"/>
			<stop offset="1" stop-color="#5392d7"/>
		</linearGradient>
		<linearGradient id="g7" x1="23.3" y1="78.1" x2="63" y2="91" gradientUnits="userSpaceOnUse">
			<stop offset="0" stop-color="#ffffff"/>
			<stop offset="1" stop-color="#cee4f3" stop-opacity="0"/>
		</linearGradient>
		<linearGradient id="g8" x1="82.3" y1="19.6" x2="121.5" y2="32.2" gradientUnits="userSpaceOnUse">
			<stop offset="0" stop-color="#ffffff"/>
			<stop offset="1" stop-color="#cee4f3" stop-opacity="0"/>
		</linearGradient>
		<linearGradient id="g9" x1="27" y1="17.5" x2="64" y2="27" gradientUnits="userSpaceOnUse">
			<stop offset="0" stop-color="#ffffff"/>
			<stop offset="1" stop-color="#cee4f3" stop-opacity="0"/>
		</linearGradient>
		<linearGradient id="g10" x1="94.7" y1="75.8" x2="116" y2="81.7" gradientUnits="userSpaceOnUse">
			<stop offset="0" stop-color="#ffffff"/>
			<stop offset="1" stop-color="#cee4f3" stop-opacity="0"/>
		</linearGradient>
		<linearGradient id="g11" x1="83.7" y1="75.8" x2="105" y2="81.7" gradientUnits="userSpaceOnUse">
			<stop offset="0" stop-color="#ffffff"/>
			<stop offset="1" stop-color="#cee4f3" stop-opacity="0"/>
		</linearGradient>
		<linearGradient id="g12" x1="94.7" y1="95.5" x2="115.4" y2="102.3" gradientUnits="userSpaceOnUse">
			<stop offset="0" stop-color="#ffffff"/>
			<stop offset="1" stop-color="#cee4f3" stop-opacity="0"/>
		</linearGradient>
		<linearGradient id="g13" x1="83.7" y1="95.5" x2="104.4" y2="102.3" gradientUnits="userSpaceOnUse">
			<stop offset="0" stop-color="#ffffff"/>
			<stop offset="1" stop-color="#cee4f3" stop-opacity="0"/>
		</linearGradient>
		<linearGradient id="g14" x1="94.7" y1="88.1" x2="113.9" y2="96.6" gradientUnits="userSpaceOnUse">
			<stop offset="0" stop-color="#ffffff"/>
			<stop offset="1" stop-color="#cee4f3" stop-opacity="0"/>
		</linearGradient>
		<linearGradient id="g15" x1="83.7" y1="88.1" x2="102.9" y2="96.6" gradientUnits="userSpaceOnUse">
			<stop offset="0" stop-color="#ffffff"/>
			<stop offset="1" stop-color="#cee4f3" stop-opacity="0"/>
		</linearGradient>
		<linearGradient id="g16" x1="94.7" y1="75.8" x2="116" y2="81.7" gradientUnits="userSpaceOnUse">
			<stop offset="0" stop-color="#ffffff"/>
			<stop offset="1" stop-color="#cee4f3" stop-opacity="0"/>
		</linearGradient>
		<linearGradient id="g17" x1="83.7" y1="75.8" x2="105" y2="81.7" gradientUnits="userSpaceOnUse">
			<stop offset="0" stop-color="#ffffff"/>
			<stop offset="1" stop-color="#cee4f3" stop-opacity="0"/>
		</linearGradient>
		<linearGradient id="g18" x1="94.7" y1="95.5" x2="115.4" y2="102.3" gradientUnits="userSpaceOnUse">
			<stop offset="0" stop-color="#ffffff"/>
			<stop offset="1" stop-color="#cee4f3" stop-opacity="0"/>
		</linearGradient>
		<linearGradient id="g19" x1="83.7" y1="95.5" x2="104.4" y2="102.3" gradientUnits="userSpaceOnUse">
			<stop offset="0" stop-color="#ffffff"/>
			<stop offset="1" stop-color="#cee4f3" stop-opacity="0"/>
		</linearGradient>
		<linearGradient id="g20" x1="94.7" y1="88.1" x2="113.9" y2="96.6" gradientUnits="userSpaceOnUse">
			<stop offset="0" stop-color="#ffffff"/>
			<stop offset="1" stop-color="#cee4f3" stop-opacity="0"/>
		</linearGradient>
		<linearGradient id="g21" x1="83.7" y1="88.1" x2="102.9" y2="96.6" gradientUnits="userSpaceOnUse">
			<stop offset="0" stop-color="#ffffff"/>
			<stop offset="1" stop-color="#cee4f3" stop-opacity="0"/>
		</linearGradient>
	</defs>
	<style>
		.s0 { fill: url(#g1) } 
		.s1 { fill: url(#g2) } 
		.s2 { fill: url(#g3) } 
		.s3 { fill: url(#g4) } 
		.s4 { fill: url(#g5) } 
		.s5 { fill: url(#g6) } 
		.s6 { fill: url(#g7) } 
		.s7 { fill: url(#g8) } 
		.s8 { fill: url(#g9) } 
		.s9 { opacity: .6;fill: url(#g10) } 
		.s10 { fill: url(#g11) } 
		.s11 { opacity: .6;fill: url(#g12) } 
		.s12 { fill: url(#g13) } 
		.s13 { opacity: .3;fill: url(#g14) } 
		.s14 { opacity: .6;fill: url(#g15) } 
		.s15 { opacity: .6;fill: url(#g16) } 
		.s16 { fill: url(#g17) } 
		.s17 { opacity: .6;fill: url(#g18) } 
		.s18 { fill: url(#g19) } 
		.s19 { opacity: .3;fill: url(#g20) } 
		.s20 { opacity: .6;fill: url(#g21) } 
	</style>
	<path id="Layer" class="s0" d="m0 0h124v124h-124z"/>
	<path id="Layer" class="s1" d="m62 62v62h-62v-62h31z"/>
	<path id="Layer" class="s2" d="m62 62v62h-62v-62h31z"/>
	<path id="Layer" class="s3" d="m62 62h62v62h-62v-31z"/>
	<path id="Layer" class="s4" d="m62 62v-62h62v62h-31z"/>
	<path id="Layer" class="s5" d="m62 62h-62v-62h62v31z"/>
	<path id="Layer" class="s6" d="m41 97.3v6.4c0 0.4-0.4 0.7-0.8 0.7h-19.4c-0.5 0-0.8-0.3-0.8-0.7v-1.8c0-0.4 0.3-0.8 0.8-0.8h2.4v-9.8h-1.9c-0.4 0-0.8-0.3-0.8-0.8v-1.6c0-0.4 0.4-0.8 0.8-0.8h1.9v-5.1c0-4.6 3.7-8 8.9-8 2.9 0 5.1 1.3 6.2 2 0.4 0.3 0.4 0.8 0.1 1.2l-1.2 1.6c-0.3 0.3-0.8 0.4-1.1 0.1-0.8-0.4-2.3-1.2-4-1.2-3 0-4.7 2-4.7 4.4v5h6.5c0.4 0 0.8 0.4 0.8 0.8v1.6c0 0.5-0.4 0.8-0.8 0.8h-6.5v9.8h10v-3.8c0-0.4 0.4-0.7 0.8-0.7h2c0.4 0 0.8 0.3 0.8 0.7z"/>
	<path id="Layer" class="s7" d="m99.1 45.5c-0.8 0.2-2.2 0.4-3.7 0.4-6.7 0-11.8-4.1-13.5-9.9h-2.1c-0.5 0-0.8-0.4-0.8-0.8v-1.6c0-0.4 0.3-0.8 0.8-0.8h1.5c-0.1-0.8-0.1-2.1 0-3.2h-1.5c-0.5 0-0.8-0.3-0.8-0.7v-1.6c0-0.4 0.3-0.8 0.8-0.8h2c1.7-5.7 7-10 13.6-10 1.3 0 2.5 0.2 3.2 0.3 0.4 0.1 0.7 0.6 0.6 1l-0.5 2c-0.1 0.4-0.5 0.6-0.9 0.5-0.6-0.1-1.6-0.2-2.5-0.2-4.5 0-7.8 2.6-9.2 6.5h10.3c0.5 0 0.9 0.4 0.7 0.9l-0.3 1.6c-0.1 0.3-0.4 0.6-0.7 0.6h-10.7c-0.1 1-0.1 2 0 3.2h9.8c0.4 0 0.8 0.4 0.7 0.9l-0.3 1.6c-0.1 0.4-0.4 0.6-0.8 0.6h-8.5c1.4 3.8 4.8 6.4 9.1 6.4 1.2 0 2.3-0.2 2.9-0.3 0.5-0.2 0.9 0.1 1 0.6l0.4 1.9c0.1 0.4-0.1 0.8-0.6 0.9z"/>
	<path id="Layer" class="s8" d="m42.7 38.2c-0.7 3.2-3.8 5.2-7 5.2h-0.1v3.2c0 0.6-0.5 1-1.1 1h-2.1c-0.6 0-1-0.4-1-1v-3.2h-0.2c-2.1 0-4.1-0.6-5.7-1.9-0.5-0.4-0.6-1.1-0.1-1.5l1.5-1.6c0.3-0.3 0.9-0.3 1.3-0.1 0.9 0.6 1.9 0.9 3 0.9h4.8c1.6 0 2.9-1.4 2.7-3.1-0.2-1-1-1.9-2.1-2.1l-7.6-2.3c-3.5-0.9-5.7-4.6-4.8-8.2 0.7-3.2 3.8-5.3 7-5.3h0.2v-3.1c0-0.6 0.4-1.1 1-1.1h2.1c0.6 0 1.1 0.5 1.1 1.1v3.1h0.1c2.1 0 4.1 0.7 5.7 2 0.5 0.4 0.6 1.1 0.1 1.6l-1.5 1.5c-0.3 0.3-0.9 0.4-1.3 0.1-0.9-0.7-1.9-1-3-1h-4.8c-1.6 0-2.9 1.5-2.7 3.2 0.2 1 1 1.9 2.1 2.1l7.6 2.3c3.5 1 5.7 4.6 4.8 8.2z"/>
	<path id="Layer" class="s9" d="m104 91.8l-11-4.9v-13z"/>
	<path id="Layer" class="s10" d="m93 86.9l-11 4.9 11-17.9z"/>
	<path id="Layer" class="s11" d="m104 93.9l-11 15.2v-8.8z"/>
	<path id="Layer" class="s12" d="m82 93.9l11 6.4v8.8z"/>
	<path id="Layer" class="s13" d="m93 86.9l11 4.9-11 6.4z"/>
	<path id="Layer" class="s14" d="m93 86.9v11.3l-11-6.4z"/>
	<path id="Layer" class="s15" d="m104 91.8l-11-4.9v-13z"/>
	<path id="Layer" class="s16" d="m93 86.9l-11 4.9 11-17.9z"/>
	<path id="Layer" class="s17" d="m104 93.9l-11 15.2v-8.8z"/>
	<path id="Layer" class="s18" d="m82 93.9l11 6.4v8.8z"/>
	<path id="Layer" class="s19" d="m93 86.9l11 4.9-11 6.4z"/>
	<path id="Layer" class="s20" d="m93 86.9v11.3l-11-6.4z"/>
</svg>