<svg width="124" height="124" viewBox="0 0 124 124" fill="none" xmlns="http://www.w3.org/2000/svg">
<g clip-path="url(#clip000)">
<rect width="124" height="124" fill="url(#paint000_linear)"/>
<rect width="124" height="124" fill="url(#paint100_linear)"/>
<rect width="124" height="124" fill="url(#paint200_linear)"/>
<path d="M21.7765 60.8691L22.0807 60.391L40.4205 31.7006C40.6886 31.2805 41.3187 31.3239 41.5214 31.7802C44.5854 38.6468 47.2291 47.1866 45.9906 52.5031C45.4618 54.6906 44.0132 57.653 42.3834 60.391C42.1734 60.7894 41.9416 61.1806 41.6953 61.5572C41.5794 61.731 41.3838 61.8324 41.1737 61.8324H22.3125C21.8054 61.8324 21.5085 61.2819 21.7765 60.8691Z" fill="white"/>
<path d="M103.528 66.2009V70.7424C103.528 71.0031 103.369 71.2349 103.137 71.3363C101.717 71.9447 96.857 74.1756 94.8362 76.986C89.679 84.1641 85.7387 94.4277 76.9309 94.4277H40.186C27.1628 94.4277 16.6094 83.8382 16.6094 70.7713V70.3513C16.6094 70.0036 16.8918 69.7211 17.2395 69.7211H37.7234C38.1289 69.7211 38.4259 70.0978 38.3898 70.4961C38.2448 71.8288 38.4912 73.1906 39.1213 74.4291C40.3381 76.8992 42.8588 78.442 45.5822 78.442H55.7228V70.5251H45.6981C45.1839 70.5251 44.8797 69.9311 45.1767 69.5111C45.2853 69.3444 45.4085 69.1707 45.5388 68.9751C46.4877 67.6279 47.8422 65.5346 49.1894 63.1515C50.1093 61.5436 51.0001 59.8269 51.7173 58.103C51.8622 57.7916 51.978 57.4728 52.0939 57.1613C52.2894 56.6108 52.4923 56.0966 52.6371 55.5824C52.7821 55.1477 52.8978 54.6914 53.0137 54.264C53.3543 52.8009 53.4991 51.2509 53.4991 49.6429C53.4991 49.0128 53.4702 48.3536 53.4122 47.7235C53.3832 47.0354 53.2963 46.3472 53.2093 45.6591C53.1514 45.0507 53.0428 44.4494 52.9269 43.8193C52.7821 42.8994 52.5792 41.9869 52.3474 41.0668L52.2677 40.7193C52.0939 40.089 51.9491 39.4879 51.7463 38.8578C51.174 36.8803 50.5149 34.9536 49.8195 33.1501C49.566 32.433 49.2763 31.7449 48.9865 31.0568C48.5593 30.021 48.1246 29.0794 47.7262 28.1885C47.5235 27.7828 47.3496 27.4134 47.1758 27.0368C46.9802 26.6094 46.7775 26.182 46.5746 25.7765C46.4298 25.4651 46.2631 25.1753 46.1472 24.8855L44.9086 22.5967C44.7348 22.2852 45.0245 21.9158 45.3649 22.01L53.1153 24.1105H53.137C53.1514 24.1105 53.1587 24.1178 53.1659 24.1178L54.1872 24.4002L55.3099 24.719L55.7228 24.8348V20.2282C55.7228 18.0045 57.5046 16.2009 59.7066 16.2009C60.8075 16.2009 61.8071 16.65 62.5242 17.3815C63.2412 18.1132 63.6903 19.1127 63.6903 20.2282V27.0658L64.5161 27.2975C64.5812 27.3193 64.6464 27.3482 64.7043 27.3917C64.9072 27.5438 65.1969 27.7683 65.5663 28.0437C65.856 28.2753 66.1675 28.5579 66.5441 28.8476C67.2901 29.4487 68.1811 30.2238 69.159 31.1148C69.4197 31.3393 69.6732 31.5711 69.905 31.8029C71.1654 32.9763 72.5778 34.3524 73.925 35.8735C74.3017 36.3009 74.6711 36.7355 75.0477 37.1917C75.4243 37.6553 75.8228 38.1116 76.1703 38.568C76.6267 39.1765 77.1193 39.8066 77.5466 40.4658C77.7494 40.7772 77.9812 41.0959 78.1768 41.4074C78.7272 42.2402 79.2125 43.1023 79.6762 43.9643C79.8717 44.3626 80.0745 44.7971 80.2483 45.2245C80.7626 46.3762 81.1682 47.5496 81.4289 48.723C81.5086 48.9765 81.5665 49.2518 81.5956 49.4981V49.556C81.6824 49.9036 81.7115 50.273 81.7404 50.6496C81.8563 51.8521 81.7983 53.0544 81.5376 54.264C81.4289 54.7784 81.2841 55.2636 81.1103 55.7779C80.9364 56.2705 80.7626 56.7847 80.5381 57.27C80.1035 58.2767 79.5892 59.2836 78.9807 60.2252C78.7852 60.5729 78.5534 60.9423 78.3216 61.2901C78.068 61.6593 77.8073 62.007 77.5755 62.3476C77.2569 62.7821 76.9165 63.2384 76.5688 63.644C76.2573 64.0714 75.9387 64.4988 75.591 64.8754C75.1056 65.4476 74.642 65.9909 74.1567 66.5124C73.8671 66.8528 73.5556 67.2005 73.2368 67.512C72.9255 67.8595 72.6067 68.171 72.3169 68.4608C71.8318 68.9461 71.4261 69.3227 71.0856 69.6342L70.2889 70.3658C70.173 70.4672 70.0209 70.5251 69.8616 70.5251H63.6903V78.442H71.455C73.1934 78.442 74.8449 77.8262 76.1777 76.6963C76.6339 76.298 78.6258 74.5741 80.9798 71.9738C81.0595 71.8868 81.161 71.8216 81.2769 71.7927L102.724 65.5925C103.122 65.4766 103.528 65.7808 103.528 66.2009Z" fill="white"/>
<path d="M124 124.5H124.5V124V99C124.5 87.6782 115.322 78.5 104 78.5H99C87.6782 78.5 78.5 87.6782 78.5 99V104C78.5 115.322 87.6782 124.5 99 124.5H124Z" fill="url(#paint300_linear)"/>
<path d="M124 124.5H124.5V124V99C124.5 87.6782 115.322 78.5 104 78.5H99C87.6782 78.5 78.5 87.6782 78.5 99V104C78.5 115.322 87.6782 124.5 99 124.5H124Z" fill="url(#paint400_linear)"/>
<path d="M124 124.5H124.5V124V99C124.5 87.6782 115.322 78.5 104 78.5H99C87.6782 78.5 78.5 87.6782 78.5 99V104C78.5 115.322 87.6782 124.5 99 124.5H124Z" stroke="url(#paint500_linear)"/>
<g clip-path="url(#clip100)">
<path d="M101.577 115.85C111.587 115.85 114.489 110.72 114.489 104.391C114.489 98.0626 108.708 92.9324 101.577 92.9324C94.4452 92.9324 88.6641 98.0626 88.6641 104.391C88.6641 110.72 91.5665 115.85 101.577 115.85Z" fill="white"/>
<path d="M95.9967 105.746C97.2634 105.746 98.2903 104.719 98.2903 103.453C98.2903 102.186 97.2634 101.159 95.9967 101.159C94.73 101.159 93.7031 102.186 93.7031 103.453C93.7031 104.719 94.73 105.746 95.9967 105.746Z" fill="#E5E5E5"/>
<path d="M95.9967 105.746C97.2634 105.746 98.2903 104.719 98.2903 103.453C98.2903 102.186 97.2634 101.159 95.9967 101.159C94.73 101.159 93.7031 102.186 93.7031 103.453C93.7031 104.719 94.73 105.746 95.9967 105.746Z" fill="url(#paint600_linear)"/>
<path d="M95.9967 105.746C97.2634 105.746 98.2903 104.719 98.2903 103.453C98.2903 102.186 97.2634 101.159 95.9967 101.159C94.73 101.159 93.7031 102.186 93.7031 103.453C93.7031 104.719 94.73 105.746 95.9967 105.746Z" fill="url(#paint700_linear)"/>
<path d="M107.006 105.746C108.273 105.746 109.3 104.719 109.3 103.453C109.3 102.186 108.273 101.159 107.006 101.159C105.74 101.159 104.713 102.186 104.713 103.453C104.713 104.719 105.74 105.746 107.006 105.746Z" fill="#E5E5E5"/>
<path d="M107.006 105.746C108.273 105.746 109.3 104.719 109.3 103.453C109.3 102.186 108.273 101.159 107.006 101.159C105.74 101.159 104.713 102.186 104.713 103.453C104.713 104.719 105.74 105.746 107.006 105.746Z" fill="url(#paint800_linear)"/>
<path d="M107.006 105.746C108.273 105.746 109.3 104.719 109.3 103.453C109.3 102.186 108.273 101.159 107.006 101.159C105.74 101.159 104.713 102.186 104.713 103.453C104.713 104.719 105.74 105.746 107.006 105.746Z" fill="url(#paint900_linear)"/>
<path d="M99.5477 108.535C99.5477 108.535 99.2955 112.469 101.25 112.469C103.204 112.469 103.233 108.559 103.233 108.559C103.233 108.559 102.386 107.447 101.6 107.362C100.682 107.264 99.5477 108.535 99.5477 108.535Z" fill="#D40094"/>
<path d="M99.5477 108.535C99.5477 108.535 99.2955 112.469 101.25 112.469C103.204 112.469 103.233 108.559 103.233 108.559C103.233 108.559 102.386 107.447 101.6 107.362C100.682 107.264 99.5477 108.535 99.5477 108.535Z" stroke="#041836"/>
<path fill-rule="evenodd" clip-rule="evenodd" d="M101.396 105.017C101.746 105.017 102.03 105.301 102.03 105.651C102.03 106.702 101.774 107.499 101.316 108.073C100.858 108.648 100.254 108.93 99.6926 109.056C99.137 109.181 98.5983 109.161 98.212 109.115C98.016 109.092 97.8519 109.062 97.7349 109.036C97.6763 109.024 97.629 109.012 97.595 109.003C97.578 108.999 97.5643 108.995 97.5541 108.993L97.5414 108.989L97.5371 108.988L97.5354 108.987C97.5351 108.987 97.5341 108.987 97.7108 108.378L97.5341 108.987C97.1976 108.889 97.0039 108.538 97.1014 108.201C97.1988 107.865 97.5496 107.671 97.8856 107.768L97.8886 107.769L97.9093 107.774C97.9292 107.779 97.9612 107.787 98.0033 107.796C98.0878 107.814 98.2116 107.838 98.3611 107.855C98.6658 107.891 99.0483 107.901 99.414 107.819C99.7735 107.738 100.091 107.575 100.324 107.283C100.557 106.99 100.761 106.497 100.761 105.651C100.761 105.301 101.045 105.017 101.396 105.017Z" fill="white"/>
<path fill-rule="evenodd" clip-rule="evenodd" d="M101.433 105.017C101.784 105.017 102.068 105.301 102.068 105.651C102.068 106.497 102.272 106.99 102.505 107.283C102.738 107.575 103.056 107.738 103.415 107.819C103.781 107.901 104.163 107.891 104.468 107.855C104.617 107.838 104.741 107.814 104.826 107.796C104.868 107.787 104.9 107.779 104.92 107.774L104.94 107.769L104.942 107.768C104.942 107.768 104.942 107.768 104.942 107.768M104.942 107.768C105.279 107.671 105.63 107.865 105.728 108.201C105.825 108.538 105.632 108.889 105.295 108.987L105.118 108.378C105.295 108.987 105.295 108.987 105.294 108.987L105.294 108.987L105.292 108.988L105.288 108.989L105.275 108.993C105.265 108.995 105.251 108.999 105.234 109.003C105.2 109.012 105.153 109.024 105.094 109.036C104.977 109.062 104.813 109.092 104.617 109.115C104.231 109.161 103.692 109.181 103.137 109.056C102.575 108.93 101.971 108.648 101.513 108.073C101.055 107.499 100.799 106.702 100.799 105.651C100.799 105.301 101.083 105.017 101.433 105.017" fill="white"/>
<path d="M101.501 106.663C102.261 106.663 102.877 106.253 102.877 105.746C102.877 105.239 102.261 104.829 101.501 104.829C100.741 104.829 100.125 105.239 100.125 105.746C100.125 106.253 100.741 106.663 101.501 106.663Z" fill="#E5E5E5"/>
<path d="M101.501 106.663C102.261 106.663 102.877 106.253 102.877 105.746C102.877 105.239 102.261 104.829 101.501 104.829C100.741 104.829 100.125 105.239 100.125 105.746C100.125 106.253 100.741 106.663 101.501 106.663Z" fill="url(#paint1000_linear)"/>
<path d="M101.501 106.663C102.261 106.663 102.877 106.253 102.877 105.746C102.877 105.239 102.261 104.829 101.501 104.829C100.741 104.829 100.125 105.239 100.125 105.746C100.125 106.253 100.741 106.663 101.501 106.663Z" fill="url(#paint1100_linear)"/>
<path fill-rule="evenodd" clip-rule="evenodd" d="M95.4387 92.9683C96.3488 93.8076 96.9468 94.4975 96.9468 94.4975L89.4344 100.738C89.4344 100.738 89.0059 99.9077 88.5328 98.7053C87.5538 96.2171 86.3836 92.1372 88.4242 90.5343C90.4525 88.9412 93.5897 91.2631 95.4387 92.9683ZM93.7765 94.3492C93.4039 94.0153 92.9888 93.669 92.5531 93.3487C91.7653 92.7697 91.0394 92.3727 90.4625 92.2133C89.9358 92.0676 89.7972 92.177 89.7485 92.2154C89.7477 92.216 89.7469 92.2167 89.7461 92.2173C89.6778 92.2709 89.4762 92.4759 89.4431 93.2261C89.4103 93.9693 89.5668 94.9213 89.8551 95.9511C89.9814 96.4021 90.1258 96.8437 90.2746 97.2583L93.7765 94.3492Z" fill="white"/>
<path fill-rule="evenodd" clip-rule="evenodd" d="M113.586 100.738C113.586 100.738 114.014 99.9077 114.487 98.7053C115.466 96.2171 116.636 92.1372 114.595 90.5343C112.566 88.9412 109.429 91.263 107.58 92.9681C106.671 93.8066 106.074 94.4959 106.072 94.4975L113.586 100.738ZM112.746 97.2585C112.894 96.8439 113.039 96.4023 113.165 95.9512C113.453 94.9215 113.61 93.9696 113.577 93.2265C113.543 92.4764 113.342 92.2714 113.273 92.2175C113.273 92.217 113.272 92.2163 113.271 92.2157C113.222 92.177 113.083 92.0676 112.556 92.2133C111.979 92.3727 111.253 92.7697 110.466 93.3487C110.03 93.6689 109.615 94.0151 109.243 94.3489L112.746 97.2585Z" fill="white"/>
</g>
</g>
<defs>
<linearGradient id="paint000_linear" x1="104.623" y1="6.23747" x2="-0.191589" y2="147.439" gradientUnits="userSpaceOnUse">
<stop stop-color="#2081E2"/>
<stop offset="1" stop-color="#89B7E6"/>
</linearGradient>
<linearGradient id="paint100_linear" x1="90.0377" y1="61.5319" x2="3.84007" y2="76.1027" gradientUnits="userSpaceOnUse">
<stop stop-color="#2525C6"/>
<stop offset="1" stop-color="#4D91EE"/>
</linearGradient>
<linearGradient id="paint200_linear" x1="118.123" y1="16.261" x2="13.3063" y2="157.468" gradientUnits="userSpaceOnUse">
<stop stop-color="#3395F7"/>
<stop offset="1" stop-color="#8EC6FF"/>
</linearGradient>
<linearGradient id="paint300_linear" x1="83.95" y1="83.05" x2="118.15" y2="120.85" gradientUnits="userSpaceOnUse">
<stop stop-color="#5EC6EA"/>
<stop offset="1" stop-color="#69179B"/>
</linearGradient>
<linearGradient id="paint400_linear" x1="83.2794" y1="100.25" x2="114.1" y2="104.084" gradientUnits="userSpaceOnUse">
<stop stop-color="#2525C6"/>
<stop offset="1" stop-color="#4D91EE"/>
</linearGradient>
<linearGradient id="paint500_linear" x1="83.05" y1="84.4" x2="101.5" y2="124" gradientUnits="userSpaceOnUse">
<stop stop-color="white"/>
<stop offset="1" stop-color="white" stop-opacity="0"/>
</linearGradient>
<linearGradient id="paint600_linear" x1="94.2077" y1="101.572" x2="97.694" y2="105.425" gradientUnits="userSpaceOnUse">
<stop stop-color="#5EC6EA"/>
<stop offset="1" stop-color="#69179B"/>
</linearGradient>
<linearGradient id="paint700_linear" x1="94.1394" y1="103.325" x2="97.2812" y2="103.716" gradientUnits="userSpaceOnUse">
<stop stop-color="#2525C6"/>
<stop offset="1" stop-color="#4D91EE"/>
</linearGradient>
<linearGradient id="paint800_linear" x1="105.217" y1="101.572" x2="108.704" y2="105.425" gradientUnits="userSpaceOnUse">
<stop stop-color="#5EC6EA"/>
<stop offset="1" stop-color="#69179B"/>
</linearGradient>
<linearGradient id="paint900_linear" x1="105.149" y1="103.325" x2="108.291" y2="103.716" gradientUnits="userSpaceOnUse">
<stop stop-color="#2525C6"/>
<stop offset="1" stop-color="#4D91EE"/>
</linearGradient>
<linearGradient id="paint1000_linear" x1="100.428" y1="104.994" x2="101.667" y2="107.049" gradientUnits="userSpaceOnUse">
<stop stop-color="#5EC6EA"/>
<stop offset="1" stop-color="#69179B"/>
</linearGradient>
<linearGradient id="paint1100_linear" x1="100.387" y1="105.695" x2="102.237" y2="106.04" gradientUnits="userSpaceOnUse">
<stop stop-color="#2525C6"/>
<stop offset="1" stop-color="#4D91EE"/>
</linearGradient>
<clipPath id="clip000">
<rect width="124" height="124" fill="white"/>
</clipPath>
<clipPath id="clip100">
<rect width="28.4224" height="25.8498" fill="white" transform="translate(87.2988 90)"/>
</clipPath>
</defs>
</svg>
